<svg id="visual" viewBox="0 0 960 200" width="960" height="200" xmlns="http://www.w3.org/2000/svg" xmlns:xlink="http://www.w3.org/1999/xlink" version="1.1"><rect x="0" y="0" width="960" height="200" fill="#48d3e0"></rect><path d="M0 38L20 43.3C40 48.7 80 59.3 120 58C160 56.7 200 43.3 240 46.5C280 49.7 320 69.3 360 69.2C400 69 440 49 480 39.2C520 29.3 560 29.7 600 31.7C640 33.7 680 37.3 720 37.3C760 37.3 800 33.7 840 33.5C880 33.3 920 36.7 940 38.3L960 40L960 201L940 201C920 201 880 201 840 201C800 201 760 201 720 201C680 201 640 201 600 201C560 201 520 201 480 201C440 201 400 201 360 201C320 201 280 201 240 201C200 201 160 201 120 201C80 201 40 201 20 201L0 201Z" fill="#48d3e0"></path><path d="M0 88L20 88.2C40 88.3 80 88.7 120 85.5C160 82.3 200 75.7 240 78C280 80.3 320 91.7 360 89.7C400 87.7 440 72.3 480 68.3C520 64.3 560 71.7 600 79.2C640 86.7 680 94.3 720 97.3C760 100.3 800 98.7 840 98.2C880 97.7 920 98.3 940 98.7L960 99L960 201L940 201C920 201 880 201 840 201C800 201 760 201 720 201C680 201 640 201 600 201C560 201 520 201 480 201C440 201 400 201 360 201C320 201 280 201 240 201C200 201 160 201 120 201C80 201 40 201 20 201L0 201Z" fill="#00c2f8"></path><path d="M0 97L20 93.3C40 89.7 80 82.3 120 86.2C160 90 200 105 240 109C280 113 320 106 360 99.2C400 92.3 440 85.7 480 86.7C520 87.7 560 96.3 600 103C640 109.7 680 114.3 720 113.5C760 112.7 800 106.3 840 101.8C880 97.3 920 94.7 940 93.3L960 92L960 201L940 201C920 201 880 201 840 201C800 201 760 201 720 201C680 201 640 201 600 201C560 201 520 201 480 201C440 201 400 201 360 201C320 201 280 201 240 201C200 201 160 201 120 201C80 201 40 201 20 201L0 201Z" fill="#46a9ff"></path><path d="M0 105L20 112C40 119 80 133 120 134C160 135 200 123 240 122.5C280 122 320 133 360 134.8C400 136.7 440 129.3 480 124.3C520 119.3 560 116.7 600 117.3C640 118 680 122 720 124.8C760 127.7 800 129.3 840 127.5C880 125.7 920 120.3 940 117.7L960 115L960 201L940 201C920 201 880 201 840 201C800 201 760 201 720 201C680 201 640 201 600 201C560 201 520 201 480 201C440 201 400 201 360 201C320 201 280 201 240 201C200 201 160 201 120 201C80 201 40 201 20 201L0 201Z" fill="#9b86f3"></path><path d="M0 128L20 130.5C40 133 80 138 120 143.7C160 149.3 200 155.7 240 153.8C280 152 320 142 360 137C400 132 440 132 480 133.8C520 135.7 560 139.3 600 139.3C640 139.3 680 135.7 720 133.7C760 131.7 800 131.3 840 136C880 140.7 920 150.3 940 155.2L960 160L960 201L940 201C920 201 880 201 840 201C800 201 760 201 720 201C680 201 640 201 600 201C560 201 520 201 480 201C440 201 400 201 360 201C320 201 280 201 240 201C200 201 160 201 120 201C80 201 40 201 20 201L0 201Z" fill="#d754c0"></path><path d="M0 185L20 183.7C40 182.3 80 179.7 120 175.8C160 172 200 167 240 166.3C280 165.7 320 169.3 360 168.3C400 167.3 440 161.7 480 158.8C520 156 560 156 600 155.8C640 155.7 680 155.3 720 156.8C760 158.3 800 161.7 840 165.2C880 168.7 920 172.3 940 174.2L960 176L960 201L940 201C920 201 880 201 840 201C800 201 760 201 720 201C680 201 640 201 600 201C560 201 520 201 480 201C440 201 400 201 360 201C320 201 280 201 240 201C200 201 160 201 120 201C80 201 40 201 20 201L0 201Z" fill="#ef0671"></path></svg>