<svg id="visual" viewBox="0 0 960 150" width="960" height="150" xmlns="http://www.w3.org/2000/svg" xmlns:xlink="http://www.w3.org/1999/xlink" version="1.1"><rect x="0" y="0" width="960" height="150" fill="#f18e6f"></rect><path d="M0 36L22.8 39.2C45.7 42.3 91.3 48.7 137 49C182.7 49.3 228.3 43.7 274 39.5C319.7 35.3 365.3 32.7 411.2 30.8C457 29 503 28 548.8 30C594.7 32 640.3 37 686 39C731.7 41 777.3 40 823 37.5C868.7 35 914.3 31 937.2 29L960 27L960 151L937.2 151C914.3 151 868.7 151 823 151C777.3 151 731.7 151 686 151C640.3 151 594.7 151 548.8 151C503 151 457 151 411.2 151C365.3 151 319.7 151 274 151C228.3 151 182.7 151 137 151C91.3 151 45.7 151 22.8 151L0 151Z" fill="#f18e6f"></path><path d="M0 68L22.8 64.2C45.7 60.3 91.3 52.7 137 50.8C182.7 49 228.3 53 274 56.5C319.7 60 365.3 63 411.2 63.3C457 63.7 503 61.3 548.8 62C594.7 62.7 640.3 66.3 686 64.5C731.7 62.7 777.3 55.3 823 51.5C868.7 47.7 914.3 47.3 937.2 47.2L960 47L960 151L937.2 151C914.3 151 868.7 151 823 151C777.3 151 731.7 151 686 151C640.3 151 594.7 151 548.8 151C503 151 457 151 411.2 151C365.3 151 319.7 151 274 151C228.3 151 182.7 151 137 151C91.3 151 45.7 151 22.8 151L0 151Z" fill="#cc6a72"></path><path d="M0 88L22.8 85.2C45.7 82.3 91.3 76.7 137 73.3C182.7 70 228.3 69 274 70.3C319.7 71.7 365.3 75.3 411.2 78C457 80.7 503 82.3 548.8 80.8C594.7 79.3 640.3 74.7 686 72.2C731.7 69.7 777.3 69.3 823 69C868.7 68.7 914.3 68.3 937.2 68.2L960 68L960 151L937.2 151C914.3 151 868.7 151 823 151C777.3 151 731.7 151 686 151C640.3 151 594.7 151 548.8 151C503 151 457 151 411.2 151C365.3 151 319.7 151 274 151C228.3 151 182.7 151 137 151C91.3 151 45.7 151 22.8 151L0 151Z" fill="#9b4f6f"></path><path d="M0 103L22.8 101.5C45.7 100 91.3 97 137 96.2C182.7 95.3 228.3 96.7 274 97.5C319.7 98.3 365.3 98.7 411.2 99.3C457 100 503 101 548.8 101.8C594.7 102.7 640.3 103.3 686 103.8C731.7 104.3 777.3 104.7 823 103.5C868.7 102.3 914.3 99.7 937.2 98.3L960 97L960 151L937.2 151C914.3 151 868.7 151 823 151C777.3 151 731.7 151 686 151C640.3 151 594.7 151 548.8 151C503 151 457 151 411.2 151C365.3 151 319.7 151 274 151C228.3 151 182.7 151 137 151C91.3 151 45.7 151 22.8 151L0 151Z" fill="#653a62"></path><path d="M0 103L22.8 104.3C45.7 105.7 91.3 108.3 137 111.2C182.7 114 228.3 117 274 117.2C319.7 117.3 365.3 114.7 411.2 111.7C457 108.7 503 105.3 548.8 104.3C594.7 103.3 640.3 104.7 686 104.5C731.7 104.3 777.3 102.7 823 103.2C868.7 103.7 914.3 106.3 937.2 107.7L960 109L960 151L937.2 151C914.3 151 868.7 151 823 151C777.3 151 731.7 151 686 151C640.3 151 594.7 151 548.8 151C503 151 457 151 411.2 151C365.3 151 319.7 151 274 151C228.3 151 182.7 151 137 151C91.3 151 45.7 151 22.8 151L0 151Z" fill="#30284a"></path><path d="M0 134L22.8 133.3C45.7 132.7 91.3 131.3 137 129.3C182.7 127.3 228.3 124.7 274 124C319.7 123.3 365.3 124.7 411.2 126.3C457 128 503 130 548.8 129.7C594.7 129.3 640.3 126.7 686 124.8C731.7 123 777.3 122 823 121.5C868.7 121 914.3 121 937.2 121L960 121L960 151L937.2 151C914.3 151 868.7 151 823 151C777.3 151 731.7 151 686 151C640.3 151 594.7 151 548.8 151C503 151 457 151 411.2 151C365.3 151 319.7 151 274 151C228.3 151 182.7 151 137 151C91.3 151 45.7 151 22.8 151L0 151Z" fill="#01132b"></path></svg>