<svg id="visual" viewBox="0 0 960 200" width="960" height="200" xmlns="http://www.w3.org/2000/svg" xmlns:xlink="http://www.w3.org/1999/xlink" version="1.1"><rect x="0" y="0" width="960" height="200" fill="#f56c42"></rect><path d="M0 43L20 39.7C40 36.3 80 29.7 120 34.5C160 39.3 200 55.7 240 63.8C280 72 320 72 360 68.5C400 65 440 58 480 54.5C520 51 560 51 600 55C640 59 680 67 720 62.8C760 58.7 800 42.3 840 43.5C880 44.7 920 63.3 940 72.7L960 82L960 201L940 201C920 201 880 201 840 201C800 201 760 201 720 201C680 201 640 201 600 201C560 201 520 201 480 201C440 201 400 201 360 201C320 201 280 201 240 201C200 201 160 201 120 201C80 201 40 201 20 201L0 201Z" fill="#f56c42"></path><path d="M0 79L20 77.8C40 76.7 80 74.3 120 69.8C160 65.3 200 58.7 240 59.5C280 60.3 320 68.7 360 71.2C400 73.7 440 70.3 480 66C520 61.7 560 56.3 600 62C640 67.7 680 84.3 720 92.7C760 101 800 101 840 101.2C880 101.3 920 101.7 940 101.8L960 102L960 201L940 201C920 201 880 201 840 201C800 201 760 201 720 201C680 201 640 201 600 201C560 201 520 201 480 201C440 201 400 201 360 201C320 201 280 201 240 201C200 201 160 201 120 201C80 201 40 201 20 201L0 201Z" fill="#d3475b"></path><path d="M0 111L20 108.5C40 106 80 101 120 103.7C160 106.3 200 116.7 240 120.8C280 125 320 123 360 123.2C400 123.3 440 125.7 480 118.5C520 111.3 560 94.7 600 87.3C640 80 680 82 720 87.3C760 92.7 800 101.3 840 103.8C880 106.3 920 102.7 940 100.8L960 99L960 201L940 201C920 201 880 201 840 201C800 201 760 201 720 201C680 201 640 201 600 201C560 201 520 201 480 201C440 201 400 201 360 201C320 201 280 201 240 201C200 201 160 201 120 201C80 201 40 201 20 201L0 201Z" fill="#a03567"></path><path d="M0 123L20 125.3C40 127.7 80 132.3 120 129C160 125.7 200 114.3 240 112.7C280 111 320 119 360 119.3C400 119.7 440 112.3 480 112.8C520 113.3 560 121.7 600 122.7C640 123.7 680 117.3 720 112.8C760 108.3 800 105.7 840 107.5C880 109.3 920 115.7 940 118.8L960 122L960 201L940 201C920 201 880 201 840 201C800 201 760 201 720 201C680 201 640 201 600 201C560 201 520 201 480 201C440 201 400 201 360 201C320 201 280 201 240 201C200 201 160 201 120 201C80 201 40 201 20 201L0 201Z" fill="#652e62"></path><path d="M0 128L20 131.2C40 134.3 80 140.7 120 142.2C160 143.7 200 140.3 240 141.8C280 143.3 320 149.7 360 150.2C400 150.7 440 145.3 480 144.8C520 144.3 560 148.7 600 153C640 157.3 680 161.7 720 160.5C760 159.3 800 152.7 840 147.3C880 142 920 138 940 136L960 134L960 201L940 201C920 201 880 201 840 201C800 201 760 201 720 201C680 201 640 201 600 201C560 201 520 201 480 201C440 201 400 201 360 201C320 201 280 201 240 201C200 201 160 201 120 201C80 201 40 201 20 201L0 201Z" fill="#2d234c"></path><path d="M0 183L20 178.7C40 174.3 80 165.7 120 165C160 164.3 200 171.7 240 172.3C280 173 320 167 360 165.7C400 164.3 440 167.7 480 169C520 170.3 560 169.7 600 170.2C640 170.7 680 172.3 720 174.2C760 176 800 178 840 180.2C880 182.3 920 184.7 940 185.8L960 187L960 201L940 201C920 201 880 201 840 201C800 201 760 201 720 201C680 201 640 201 600 201C560 201 520 201 480 201C440 201 400 201 360 201C320 201 280 201 240 201C200 201 160 201 120 201C80 201 40 201 20 201L0 201Z" fill="#01132b"></path></svg>