<svg id="visual" viewBox="0 0 960 200" width="960" height="200" xmlns="http://www.w3.org/2000/svg" xmlns:xlink="http://www.w3.org/1999/xlink" version="1.1"><rect x="0" y="0" width="960" height="200" fill="#521e82"></rect><path d="M0 51L20 51.8C40 52.7 80 54.3 120 50.8C160 47.3 200 38.7 240 39.3C280 40 320 50 360 51.5C400 53 440 46 480 49.3C520 52.7 560 66.3 600 72.8C640 79.3 680 78.7 720 69.8C760 61 800 44 840 41C880 38 920 49 940 54.5L960 60L960 201L940 201C920 201 880 201 840 201C800 201 760 201 720 201C680 201 640 201 600 201C560 201 520 201 480 201C440 201 400 201 360 201C320 201 280 201 240 201C200 201 160 201 120 201C80 201 40 201 20 201L0 201Z" fill="#521e82"></path><path d="M0 77L20 79.8C40 82.7 80 88.3 120 91.5C160 94.7 200 95.3 240 97.3C280 99.3 320 102.7 360 99.8C400 97 440 88 480 81C520 74 560 69 600 71.2C640 73.3 680 82.7 720 81.2C760 79.7 800 67.3 840 66C880 64.7 920 74.3 940 79.2L960 84L960 201L940 201C920 201 880 201 840 201C800 201 760 201 720 201C680 201 640 201 600 201C560 201 520 201 480 201C440 201 400 201 360 201C320 201 280 201 240 201C200 201 160 201 120 201C80 201 40 201 20 201L0 201Z" fill="#3d4ca8"></path><path d="M0 87L20 87C40 87 80 87 120 86.3C160 85.7 200 84.3 240 88.2C280 92 320 101 360 100.8C400 100.7 440 91.3 480 92.3C520 93.3 560 104.7 600 111.8C640 119 680 122 720 117.8C760 113.7 800 102.3 840 95.8C880 89.3 920 87.7 940 86.8L960 86L960 201L940 201C920 201 880 201 840 201C800 201 760 201 720 201C680 201 640 201 600 201C560 201 520 201 480 201C440 201 400 201 360 201C320 201 280 201 240 201C200 201 160 201 120 201C80 201 40 201 20 201L0 201Z" fill="#1971c4"></path><path d="M0 143L20 137.3C40 131.7 80 120.3 120 113.7C160 107 200 105 240 109.2C280 113.3 320 123.7 360 125.5C400 127.3 440 120.7 480 117.3C520 114 560 114 600 115.5C640 117 680 120 720 121.5C760 123 800 123 840 125.7C880 128.3 920 133.7 940 136.3L960 139L960 201L940 201C920 201 880 201 840 201C800 201 760 201 720 201C680 201 640 201 600 201C560 201 520 201 480 201C440 201 400 201 360 201C320 201 280 201 240 201C200 201 160 201 120 201C80 201 40 201 20 201L0 201Z" fill="#0094d7"></path><path d="M0 132L20 133.7C40 135.3 80 138.7 120 141C160 143.3 200 144.7 240 149C280 153.3 320 160.7 360 159.7C400 158.7 440 149.3 480 147.8C520 146.3 560 152.7 600 152C640 151.3 680 143.7 720 143.8C760 144 800 152 840 152.3C880 152.7 920 145.3 940 141.7L960 138L960 201L940 201C920 201 880 201 840 201C800 201 760 201 720 201C680 201 640 201 600 201C560 201 520 201 480 201C440 201 400 201 360 201C320 201 280 201 240 201C200 201 160 201 120 201C80 201 40 201 20 201L0 201Z" fill="#00b5df"></path><path d="M0 169L20 170.7C40 172.3 80 175.7 120 173.2C160 170.7 200 162.3 240 163.2C280 164 320 174 360 178.2C400 182.3 440 180.7 480 178.5C520 176.3 560 173.7 600 175C640 176.3 680 181.7 720 179.5C760 177.3 800 167.7 840 162.2C880 156.7 920 155.3 940 154.7L960 154L960 201L940 201C920 201 880 201 840 201C800 201 760 201 720 201C680 201 640 201 600 201C560 201 520 201 480 201C440 201 400 201 360 201C320 201 280 201 240 201C200 201 160 201 120 201C80 201 40 201 20 201L0 201Z" fill="#48d3e0"></path></svg>